<svg width="192" height="185" viewBox="0 0 192 185" fill="none" xmlns="http://www.w3.org/2000/svg">
<circle cx="124.796" cy="179" r="6" fill="#637BFE"/>
<circle cx="106.796" cy="173" r="3" fill="#51AC72"/>
<circle cx="87.2955" cy="6.5" r="6.5" fill="#51AC72"/>
<circle cx="44.2955" cy="157.5" r="5.5" stroke="#51AC72" stroke-width="2"/>
<circle cx="31.2955" cy="67.5" r="5.5" stroke="#FFC107" stroke-width="2"/>
<circle cx="177.796" cy="83" r="4" stroke="#C05EFD" stroke-width="2"/>
<circle cx="106.296" cy="16.5" r="3.5" fill="#F3603F"/>
<circle cx="107" cy="90.3693" r="60" fill="#53B175"/>
<circle cx="107" cy="91.3693" r="49.5" fill="#51AC72" stroke="#CBE7D5"/>
<path d="M123.5 72.3693L100.5 94.8693L89.5 84.8693C88.5 83.8693 84.8 83.5693 82 86.3693C79.2 89.1693 80.5 93.53 82 94.8693C86.6667 99.0359 93.8333 106.369 96.5 108.369C99.1667 110.369 102.5 110.369 105 108.369C107.5 106.369 131 83.3693 132.5 81.8693C134 80.3693 136.1 75.1693 132.5 72.3693C128.9 69.5693 125 71.2026 123.5 72.3693Z" fill="white"/>
<path d="M153 151.369C158.667 152.869 169.5 158.769 167.5 170.369" stroke="#F7B23B" stroke-width="2"/>
<path d="M32 114.5C32 119 28.9 124.269 20.5 123.869C10 123.369 4.44096 113.275 10 109.869C15.5 106.5 22.9044 116.443 18.5 125.869C14 135.5 5 134.5 1 133" stroke="#637BFE" stroke-width="2"/>
<path d="M170 43C177.167 43.1667 192 39 182.5 24.8693C175.805 14.9106 188.333 10 192 10" stroke="#F3603F" stroke-width="2"/>
</svg>
