<svg width="76" height="64" viewBox="0 0 76 64" fill="none" xmlns="http://www.w3.org/2000/svg">
<ellipse cx="31.0337" cy="19.0163" rx="4.57559" ry="4.70286" fill="#3E7BF8"/>
<ellipse cx="4.57559" cy="32.1023" rx="4.57559" ry="4.70286" fill="#D161F3"/>
<ellipse cx="17.7062" cy="32.1023" rx="4.57559" ry="4.70286" fill="#D161F3"/>
<ellipse cx="4.57559" cy="19.0163" rx="4.57559" ry="4.70286" fill="#6A49F9"/>
<ellipse cx="17.7062" cy="4.70286" rx="4.57559" ry="4.70286" fill="#6A49F9"/>
<ellipse cx="44.1653" cy="4.70286" rx="4.57559" ry="4.70286" fill="#3E7BF8"/>
<ellipse cx="57.6928" cy="4.70286" rx="4.57559" ry="4.70286" fill="#00A8F6"/>
<ellipse cx="57.6928" cy="19.0163" rx="4.57559" ry="4.70286" fill="#00A8F6"/>
<ellipse cx="70.6247" cy="19.0163" rx="4.57559" ry="4.70286" fill="#00A8F6"/>
<ellipse cx="70.6247" cy="32.1023" rx="4.57559" ry="4.70286" fill="#00C8FC"/>
<ellipse cx="70.6247" cy="59.2972" rx="4.57559" ry="4.70286" fill="#00C8FC"/>
<ellipse cx="57.6928" cy="46.0064" rx="4.57559" ry="4.70286" fill="#00C8FC"/>
<ellipse cx="31.0337" cy="46.0064" rx="4.57559" ry="4.70286" fill="#7590F5"/>
<ellipse cx="17.7062" cy="46.0064" rx="4.57559" ry="4.70286" fill="#D161F3"/>
<ellipse cx="44.1653" cy="32.1023" rx="4.57559" ry="4.70286" fill="#7590F5"/>
<ellipse cx="31.0348" cy="32.1027" rx="2.18833" ry="2.2492" fill="#7590F5"/>
<ellipse cx="17.9037" cy="19.0161" rx="2.18833" ry="2.2492" fill="#6A49F9"/>
<ellipse cx="6.9636" cy="7.15643" rx="2.18833" ry="2.2492" fill="#6A49F9"/>
<ellipse cx="31.0348" cy="4.90716" rx="2.18833" ry="2.2492" fill="#3E7BF8"/>
<ellipse cx="68.2374" cy="7.15643" rx="2.18833" ry="2.2492" fill="#00A8F6"/>
<ellipse cx="70.6244" cy="45.8024" rx="2.18833" ry="2.2492" fill="#00C8FC"/>
<ellipse cx="44.3633" cy="45.8024" rx="2.18833" ry="2.2492" fill="#7590F5"/>
<ellipse cx="6.9636" cy="43.5527" rx="2.18833" ry="2.2492" fill="#D161F3"/>
<ellipse cx="44.3633" cy="19.0161" rx="2.18833" ry="2.2492" fill="#3E7BF8"/>
<ellipse cx="57.6922" cy="32.1027" rx="2.18833" ry="2.2492" fill="#00C8FC"/>
</svg>
