<svg width="20" height="19" viewBox="0 0 20 19" fill="none" xmlns="http://www.w3.org/2000/svg">
<path fill-rule="evenodd" clip-rule="evenodd" d="M15.5615 18.955C15.4025 18.955 15.2435 18.918 15.0985 18.842L9.99955 16.178L4.90055 18.842C4.56255 19.018 4.15455 18.987 3.84955 18.763C3.54155 18.539 3.38855 18.16 3.45255 17.785L4.42455 12.157L0.304547 8.172C0.0295468 7.907 -0.0684532 7.509 0.0485468 7.146C0.164547 6.783 0.478547 6.519 0.855547 6.464L6.55655 5.636L9.10355 0.51C9.44155 -0.17 10.5575 -0.17 10.8955 0.51L13.4425 5.636L19.1435 6.464C19.5205 6.519 19.8345 6.783 19.9505 7.146C20.0675 7.509 19.9695 7.907 19.6945 8.172L15.5745 12.157L16.5465 17.785C16.6105 18.16 16.4575 18.539 16.1495 18.763C15.9765 18.891 15.7695 18.955 15.5615 18.955Z" fill="#FFC107"/>
</svg>
